<?xml version="1.0" encoding="iso-8859-1"?>
<!-- Generator: Adobe Illustrator 19.2.0, SVG Export Plug-In . SVG Version: 6.00 Build 0)  -->
<svg xmlns="http://www.w3.org/2000/svg" xmlns:xlink="http://www.w3.org/1999/xlink" version="1.1" id="Layer_1" x="0px" y="0px" viewBox="0 0 40 40" style="enable-background:new 0 0 40 40;" xml:space="preserve">
<g>
	<path style="fill:#98CCFD;" d="M20,38.5C9.799,38.5,1.5,30.201,1.5,20S9.799,1.5,20,1.5S38.5,9.799,38.5,20S30.201,38.5,20,38.5z"/>
	<g>
		<path style="fill:#4788C7;" d="M20,2c9.925,0,18,8.075,18,18s-8.075,18-18,18S2,29.925,2,20S10.075,2,20,2 M20,1    C9.507,1,1,9.507,1,20s8.507,19,19,19s19-8.507,19-19S30.493,1,20,1L20,1z"/>
	</g>
</g>
<g>
	<g>
		<path style="fill:#DFF0FE;" d="M20,6c7.72,0,14,6.28,14,14s-6.28,14-14,14S6,27.72,6,20S12.28,6,20,6 M20,4    C11.163,4,4,11.163,4,20s7.163,16,16,16s16-7.163,16-16S28.837,4,20,4L20,4z"/>
	</g>
</g>
<circle style="fill:#FFFFFF;" cx="20" cy="10.5" r="2.5"/>
<rect x="17" y="15" style="fill:#FFFFFF;" width="6" height="9"/>
<polyline style="fill:none;stroke:#FFFFFF;stroke-width:2;stroke-miterlimit:10;" points="11,14 18.643,16 21.357,16 29,14 "/>
<polygon style="fill:#FFFFFF;" points="23,23 21,23 22,31 24,31 "/>
<polygon style="fill:#FFFFFF;" points="17,23 19,23 18,31 16,31 "/>
</svg>
